<svg xmlns="http://www.w3.org/2000/svg" width="322" height="322" viewBox="0 0 322 322"><g fill="#000" fill-rule="evenodd"><path d="M162.745 138.011c-.76-3.762-1.469-7.111-2.177-10.46-2.663 12.342-6.151 24.125-11.559 35.4-8.137 16.964-19.45 31.31-34.217 42.878-25.454 19.939-54.67 27.362-86.572 25.474-10.53-.623-17.964-8.974-18.441-20.611-1.35-32.899 7.315-62.668 28.823-87.93 17.368-20.397 39.42-33.516 65.752-39.081 3.558-.752 5.52-1.985 5.47-6.144-.147-12.62-1.056-25.38 4.374-37.368.958-2.115-.411-3.464-1.712-4.789-2.684-2.735-5.474-5.372-8.067-8.192-6.031-6.558-6.043-15.994-.133-22.16 5.468-5.704 15.27-5.95 21.787-.349 3.903 3.355 7.038 8.626 11.474 10.043 4.194 1.34 9.163-2.836 14.142-3.523 9.599-1.326 18.986-.639 27.937 3.013 3.078 1.256 4.864.731 6.896-1.506a97 97 0 0 1 7.455-7.386C200.81-.74 210-.828 216.184 4.974c5.777 5.42 5.952 15.364.155 22.16-3.232 3.79-8.584 6.792-9.739 11.032-1.073 3.942 2.455 8.994 3.421 13.668 1.766 8.54 1.321 17.254 1.138 25.903-.075 3.517 1.229 5.032 4.536 5.833 50.834 12.298 81.737 44.376 93 95.138 2.646 11.923 3.857 24.357 1.637 36.687-1.534 8.52-9.161 15.444-17.601 15.882-22.234 1.156-43.73-1.627-64.09-11.444-23.73-11.443-41.783-28.691-54.52-51.64-5.202-9.375-8.705-19.405-11.376-30.182"/><path d="M171.207 212.818c15.483 16.416 33.462 28.659 53.809 38.038H95.35c25.99-10.985 47.313-28.101 64.955-50.551 3.949 4.509 7.325 8.364 10.9 12.513M117.69 288.3c-2.02-2.2-4.329-3.714-5.448-7.03h95.845c.49 1.432-.577 2.17-1.35 2.96-10.924 11.19-22.059 22.153-34.314 31.913-8.886 7.077-15.548 6.938-24.607-.424-10.463-8.504-20.325-17.662-30.125-27.42"/></g></svg>